<svg width="40" height="41" viewBox="0 0 40 41" fill="none" xmlns="http://www.w3.org/2000/svg">
<path d="M22.646 2.95388H16.7383C16.7383 1.32334 18.0616 0 19.6922 0C21.3227 0 22.646 1.32334 22.646 2.95388Z" fill="white"/>
<path d="M11.3198 30.5234L8.25765 35.9684C7.45813 37.3902 7.96226 39.1921 9.38406 39.9916C10.8019 40.7891 12.6077 40.285 13.4053 38.8652L18.098 30.5234H11.3198Z" fill="white"/>
<path d="M28.0663 30.5234H21.2881L25.9808 38.8632C26.5224 39.8281 27.5247 40.3697 28.5566 40.3697C29.0469 40.3697 29.5432 40.2476 30.002 39.9916C31.4238 39.1921 31.928 37.3902 31.1284 35.9684L28.0663 30.5234Z" fill="white"/>
<path d="M0 24.6157V8.86164C0 5.59859 2.64471 2.95389 5.90776 2.95389H33.4773C36.7403 2.95389 39.385 5.59859 39.385 8.86164V24.6157C39.385 27.8787 36.7403 30.5234 33.4773 30.5234H5.90776C2.64471 30.5234 0 27.8787 0 24.6157Z" fill="white"/>
<path d="M21.6622 22.6464C21.1581 22.6464 20.654 22.4534 20.2699 22.0694L15.7545 17.5539L11.239 22.0694C10.469 22.8394 9.22441 22.8394 8.45444 22.0694C7.68446 21.2994 7.68446 20.0549 8.45444 19.2849L14.3622 13.3771C15.1322 12.6072 16.3767 12.6072 17.1467 13.3771L21.6622 17.8926L28.147 11.4079C28.9169 10.6379 30.1615 10.6379 30.9315 11.4079C31.7015 12.1779 31.7015 13.4224 30.9315 14.1924L23.0545 22.0694C22.6705 22.4534 22.1663 22.6464 21.6622 22.6464Z" fill="#8000FF"/>
</svg>
