<svg width="23" height="23" viewBox="0 0 23 23" fill="none" xmlns="http://www.w3.org/2000/svg">
<path d="M11.5 0C5.1543 0 0 5.1543 0 11.5C0 17.8457 5.1543 23 11.5 23C17.8457 23 23 17.8457 23 11.5C23 5.1543 17.8457 0 11.5 0ZM11.5 1C17.3047 1 22 5.69531 22 11.5C22 17.3047 17.3047 22 11.5 22C5.69531 22 1 17.3047 1 11.5C1 5.69531 5.69531 1 11.5 1ZM12.9375 6C12.8262 6.01172 12.7207 6.0625 12.6406 6.14062L7.64062 11.1406C7.54297 11.2344 7.48828 11.3652 7.48828 11.5C7.48828 11.6348 7.54297 11.7656 7.64062 11.8594L12.6406 16.8594C12.8398 17.0586 13.1602 17.0586 13.3594 16.8594C13.5586 16.6602 13.5586 16.3398 13.3594 16.1406L8.71875 11.5L13.3594 6.85938C13.5215 6.70898 13.5645 6.4707 13.4668 6.27344C13.3711 6.07422 13.1543 5.96484 12.9375 6Z" fill="black"/>
</svg>
