<svg width="42" height="27" viewBox="0 0 42 27" fill="none" xmlns="http://www.w3.org/2000/svg">
<path d="M38.9299 10.9295H28.3352V2.77974C28.3352 1.43312 27.2369 0.334808 25.8903 0.334808H16.1106C14.7639 0.334808 13.6656 1.43312 13.6656 2.77974V7.66961H3.07091C1.72429 7.66961 0.625977 8.76792 0.625977 10.1145V25.4368C0.625977 25.8856 0.99208 26.2517 1.44095 26.2517H40.5599C41.012 26.2517 41.3749 25.8856 41.3749 25.4368V13.3745C41.3749 12.0278 40.2766 10.9295 38.9299 10.9295ZM10.4057 18.2643H6.33082C6.33082 17.9396 6.33082 17.6945 6.41359 17.4493C6.49318 17.2042 6.57595 16.9591 6.65554 16.7171C6.73831 16.472 6.90067 16.2269 7.1458 16.0645C7.30816 15.8194 7.55329 15.657 7.79842 15.4119L8.36827 14.9216C8.53063 14.7593 8.6134 14.6765 8.69299 14.5969C8.77576 14.5173 8.85853 14.3518 8.93812 14.2722C9.02089 14.1894 9.02089 14.0271 9.02089 13.9443C9.02089 13.7819 9.02089 13.7024 9.02089 13.4572C9.02089 12.8874 8.77576 12.6423 8.36827 12.6423C8.20591 12.6423 8.04355 12.6423 7.96078 12.7218C7.87801 12.8046 7.79842 12.8874 7.71565 12.967C7.63606 13.0497 7.63606 13.2121 7.63606 13.3745C7.63606 13.5368 7.63606 13.7024 7.63606 13.8647H6.33082V13.6196C6.33082 12.967 6.49318 12.5595 6.82108 12.2348C7.1458 11.9069 7.63606 11.7445 8.36827 11.7445C9.02089 11.7445 9.50796 11.9069 9.83587 12.2348C10.1606 12.5595 10.3229 12.967 10.3229 13.5368C10.3229 13.7819 10.3229 13.9443 10.2434 14.1098C10.2434 14.2722 10.1606 14.4346 10.081 14.5969C9.99822 14.7625 9.91545 14.9248 9.75309 15.0872C9.59073 15.2495 9.42838 15.4119 9.26602 15.5774L8.53063 16.3097C8.36827 16.472 8.20591 16.6344 8.04355 16.7967C8.04355 16.9591 7.96078 17.1246 7.96078 17.2042H10.4057V18.2643ZM21.8154 10.9295H20.5102V6.36437H19.2081V5.46981H19.2877C19.6952 5.46981 20.1027 5.38704 20.3478 5.22468C20.5929 5.06232 20.7553 4.81719 20.8381 4.4097H21.8154V10.9295ZM35.67 20.3845C35.5873 20.6297 35.5077 20.792 35.3453 21.0372C35.1798 21.1995 34.9378 21.3619 34.6927 21.5242C34.4476 21.607 34.0401 21.6866 33.6326 21.6866C32.98 21.6866 32.4929 21.5242 32.2478 21.1963C31.923 20.8716 31.7575 20.3814 31.7575 19.7319H33.0627C32.9004 19.9739 32.98 20.219 33.0627 20.4641C33.1455 20.6265 33.3875 20.7888 33.6326 20.7888C33.7949 20.7888 33.9573 20.7888 34.0401 20.7061C34.1228 20.6265 34.2024 20.5437 34.2852 20.4641C34.3648 20.3845 34.3648 20.219 34.3648 20.1394C34.3648 19.9771 34.3648 19.8943 34.3648 19.7319C34.3648 19.5696 34.3648 19.4072 34.3648 19.3244C34.3648 19.1621 34.2852 19.0793 34.2024 18.9997C34.1228 18.9169 34.0401 18.8342 33.9573 18.7546C33.8777 18.6718 33.7122 18.6718 33.5498 18.6718H33.1423V17.7741H33.5498C33.7122 17.7741 33.7949 17.7741 33.8777 17.6945C33.9573 17.6117 34.0401 17.5289 34.1197 17.4493C34.2024 17.3666 34.2024 17.287 34.2852 17.1214C34.2852 16.9591 34.3648 16.8795 34.3648 16.714C34.3648 16.3892 34.2852 16.1441 34.2024 16.0645C34.1197 15.899 33.9573 15.899 33.7122 15.899C33.5498 15.899 33.4702 15.899 33.3875 15.9818C33.3047 16.0645 33.2251 16.1441 33.1423 16.2269C33.0627 16.3097 33.0627 16.472 33.0627 16.5516C33.0627 16.714 33.0627 16.7967 33.0627 16.9591H31.8403C31.8403 16.3065 32.0026 15.8194 32.3305 15.4915C32.6552 15.1668 33.1423 15.0044 33.7154 15.0044C34.2852 15.0044 34.7755 15.1668 35.1002 15.4119C35.4249 15.657 35.5904 16.0645 35.5904 16.7171C35.5904 17.1246 35.5077 17.4493 35.3453 17.6945C35.1798 17.9396 34.9378 18.102 34.6099 18.1816C35.0174 18.2643 35.3421 18.4267 35.5077 18.6718C35.67 18.9169 35.7528 19.3244 35.7528 19.7319C35.7528 19.9771 35.7528 20.1394 35.67 20.3845Z" fill="white"/>
</svg>
