<svg width="23" height="23" viewBox="0 0 23 23" fill="none" xmlns="http://www.w3.org/2000/svg">
<path d="M21.1442 6.22261H17.5389C17.8247 5.70902 17.9893 5.12121 17.9893 4.49726C17.9893 2.48103 16.2936 0.85 14.2196 0.85C13.1495 0.85 12.1788 1.28554 11.4918 1.9827C10.8047 1.28554 9.83409 0.85 8.76392 0.85C6.68992 0.85 4.99425 2.48103 4.99425 4.49726C4.99425 5.1208 5.15669 5.70866 5.44383 6.22261H1.83934C1.29714 6.22261 0.849996 6.64734 0.849996 7.18357V12.2521C0.849996 12.4512 1.01649 12.6048 1.20983 12.6048H2.10901V21.1726C2.10901 21.7088 2.55616 22.1336 3.09835 22.1336H19.8852C20.4274 22.1336 20.8746 21.7088 20.8746 21.1726V12.6048H21.7737C21.9671 12.6048 22.1336 12.4512 22.1336 12.2521V7.18357C22.1336 6.64734 21.6864 6.22261 21.1442 6.22261ZM12.5336 4.49726C12.5336 3.60671 13.2851 2.87329 14.2196 2.87329C15.1542 2.87329 15.9057 3.60671 15.9057 4.49726C15.9057 5.38782 15.1542 6.12124 14.2196 6.12124H12.5336V4.49726ZM8.76392 2.87329C9.69844 2.87329 10.45 3.60671 10.45 4.49726V6.12124H8.76392C7.8294 6.12124 7.07786 5.38782 7.07786 4.49726C7.07786 3.60671 7.8294 2.87329 8.76392 2.87329ZM2.9336 10.5815V8.24589H10.45V10.5815H2.9336ZM4.19261 12.6048H10.45V20.1103H4.19261V12.6048ZM18.791 20.1103H12.5336V12.6048H18.791V20.1103ZM20.05 10.5815H12.5336V8.24589H20.05V10.5815Z" fill="black" stroke="black" stroke-width="0.3"/>
</svg>
