<svg width="99" height="99" viewBox="0 0 99 99" fill="none" xmlns="http://www.w3.org/2000/svg">
<path d="M81.9638 25.2863C80.85 24.9563 79.6125 24.75 78.375 24.75H28.875C22.0275 24.75 16.5 30.2775 16.5 37.125V74.25C16.5 75.4875 16.7063 76.725 17.0363 77.8388C11.9213 76.3125 8.25 71.61 8.25 66V28.875C8.25 22.0275 13.7775 16.5 20.625 16.5H70.125C75.735 16.5 80.4375 20.1713 81.9638 25.2863Z" fill="#8000FF"/>
<path opacity="0.35" d="M16.5 74.25V37.125C16.5 30.2899 22.0399 24.75 28.875 24.75H78.375C85.2101 24.75 90.75 30.2899 90.75 37.125V74.25C90.75 81.0851 85.2101 86.625 78.375 86.625H28.875C22.0399 86.625 16.5 81.0851 16.5 74.25Z" fill="#8000FF"/>
<path d="M90.75 37.1245V42.5283L67.0725 57.8733C62.9888 60.5133 58.3275 61.8745 53.625 61.8745C48.9225 61.8745 44.2612 60.5133 40.1775 57.8733L16.5 42.5283V37.1245C16.5 34.237 17.49 31.597 19.14 29.4933L46.9012 47.4783C50.985 50.1595 56.265 50.1595 60.3488 47.4783L88.11 29.4933C89.76 31.597 90.75 34.237 90.75 37.1245Z" fill="#8000FF"/>
<path d="M97.6553 77.8227L83.6839 67.0853C81.5141 65.4147 78.375 66.9657 78.375 69.7005V74.2504H63.9375C60.522 74.2504 57.75 77.0224 57.75 80.4379C57.75 83.8534 60.522 86.6254 63.9375 86.6254H78.375V91.1753C78.375 93.9143 81.5141 95.4612 83.6839 93.7906L97.6553 83.0532C99.3754 81.7332 99.3754 79.1427 97.6553 77.8227Z" fill="#8000FF"/>
</svg>
