<svg width="23" height="23" viewBox="0 0 23 23" fill="none" xmlns="http://www.w3.org/2000/svg">
<path d="M2.38318 0.127686C1.15051 0.127686 0.127728 1.15046 0.127728 2.38314V10.2772C0.127728 11.5099 1.15051 12.5327 2.38318 12.5327H8.02182C9.2545 12.5327 10.2773 11.5099 10.2773 10.2772V2.38314C10.2773 1.15046 9.2545 0.127686 8.02182 0.127686H2.38318ZM14.7882 0.127686C13.5555 0.127686 12.5327 1.15046 12.5327 2.38314V5.76632C12.5327 6.999 13.5555 8.02178 14.7882 8.02178H20.4268C21.6595 8.02178 22.6823 6.999 22.6823 5.76632V2.38314C22.6823 1.15046 21.6595 0.127686 20.4268 0.127686H14.7882ZM2.38318 2.38314H8.02182V10.2772H2.38318V2.38314ZM14.7882 2.38314H20.4268V5.76632H14.7882V2.38314ZM14.7882 10.2772C13.5555 10.2772 12.5327 11.3 12.5327 12.5327V20.4268C12.5327 21.6595 13.5555 22.6822 14.7882 22.6822H20.4268C21.6595 22.6822 22.6823 21.6595 22.6823 20.4268V12.5327C22.6823 11.3 21.6595 10.2772 20.4268 10.2772H14.7882ZM14.7882 12.5327H20.4268V20.4268H14.7882V12.5327ZM2.38318 14.7881C1.15051 14.7881 0.127728 15.8109 0.127728 17.0436V20.4268C0.127728 21.6595 1.15051 22.6822 2.38318 22.6822H8.02182C9.2545 22.6822 10.2773 21.6595 10.2773 20.4268V17.0436C10.2773 15.8109 9.2545 14.7881 8.02182 14.7881H2.38318ZM2.38318 17.0436H8.02182V20.4268H2.38318V17.0436Z" fill="#8000FF"/>
</svg>
