<svg width="23" height="23" viewBox="0 0 23 23" fill="none" xmlns="http://www.w3.org/2000/svg">
<path d="M11.4918 3.24836C16.0358 3.24836 19.7352 6.94775 19.7352 11.4918C19.7352 16.0358 16.0358 19.7352 11.4918 19.7352C6.94775 19.7352 3.24835 16.0358 3.24835 11.4918C3.24835 6.94775 6.94775 3.24836 11.4918 3.24836ZM11.4918 0.85C5.61747 0.85 0.849996 5.61748 0.849996 11.4918C0.849996 17.3661 5.61747 22.1336 11.4918 22.1336C17.3661 22.1336 22.1336 17.3661 22.1336 11.4918C22.1336 5.61748 17.3661 0.85 11.4918 0.85Z" fill="#8000FF" stroke="#8000FF" stroke-width="0.3"/>
<path d="M11.4918 9.54328C12.563 9.54328 13.4401 10.4204 13.4401 11.4916C13.4401 12.5629 12.563 13.44 11.4918 13.44C10.4205 13.44 9.5434 12.5629 9.5434 11.4916C9.5434 10.4204 10.4205 9.54328 11.4918 9.54328ZM11.4918 7.14492C9.09023 7.14492 7.14504 9.09011 7.14504 11.4916C7.14504 13.8932 9.09023 15.8384 11.4918 15.8384C13.8933 15.8384 15.8385 13.8932 15.8385 11.4916C15.8385 9.09011 13.8933 7.14492 11.4918 7.14492Z" fill="#8000FF" stroke="#8000FF" stroke-width="0.3"/>
</svg>
