<svg width="42" height="41" viewBox="0 0 42 41" fill="none" xmlns="http://www.w3.org/2000/svg">
<path d="M21.0004 0.625549C16.5053 0.625549 12.8506 4.28022 12.8506 8.77533C12.8506 9.64761 13.0035 10.4753 13.2581 11.2712C16.7154 11.8984 19.2272 12.7515 20.7712 13.3596L21.0004 13.436L21.2296 13.3596C22.7736 12.7515 25.2918 11.9238 28.7427 11.2967C29.0006 10.4944 29.1502 9.63806 29.1502 8.77533C29.1502 4.28022 25.4955 0.625549 21.0004 0.625549ZM3.07091 12.0352C2.62204 12.0352 2.25593 12.4013 2.25593 12.8502V17.7401H3.07091C5.35667 17.7401 7.1458 19.5292 7.1458 21.815V23.4449C7.1458 25.7307 5.35667 27.5198 3.07091 27.5198H2.25593V35.6696C2.25593 36.1217 2.62204 36.4846 3.07091 36.4846C12.7233 36.4846 18.7688 40.0597 20.1854 40.9924V14.8622C17.8106 13.9262 11.9083 12.0352 3.07091 12.0352ZM38.9299 12.0352C30.0925 12.0352 24.1903 13.9262 21.8154 14.8622V40.9924C23.2321 40.0597 29.2807 36.4846 38.9299 36.4846C39.382 36.4846 39.7449 36.1217 39.7449 35.6696V27.5198H38.9299C36.6442 27.5198 34.8551 25.7307 34.8551 23.4449V21.815C34.8551 19.5292 36.6442 17.7401 38.9299 17.7401H39.7449V12.8502C39.7449 12.4013 39.382 12.0352 38.9299 12.0352ZM2.25593 19.37C1.35818 19.37 0.625977 20.1023 0.625977 21V24.2599C0.625977 25.1577 1.35818 25.8899 2.25593 25.8899H3.07091C4.45574 25.8899 5.51584 24.8298 5.51584 23.4449V21.815C5.51584 20.4302 4.45574 19.37 3.07091 19.37H2.25593ZM38.9299 19.37C38.758 19.37 38.5829 19.3891 38.4206 19.421C37.2904 19.6438 36.485 20.6021 36.485 21.815V23.4449C36.485 24.8298 37.5451 25.8899 38.9299 25.8899H39.7449C40.6427 25.8899 41.3749 25.1577 41.3749 24.2599V21C41.3749 20.1023 40.6427 19.37 39.7449 19.37H38.9299Z" fill="white"/>
</svg>
