<svg width="19" height="23" viewBox="0 0 19 23" fill="none" xmlns="http://www.w3.org/2000/svg">
<path d="M17.9398 14.6291H17.9742L17.9509 14.4588L17.3571 10.1256C16.865 6.49257 14.0873 3.6615 10.6814 3.12076V2.13542C10.6814 1.47966 10.1455 0.94375 9.48975 0.94375C8.83399 0.94375 8.29809 1.47966 8.29809 2.13542V3.12114C4.89258 3.67168 2.13532 6.49259 1.63282 10.1252L1.6328 10.1254L1.03909 14.4585C0.876978 15.6257 1.22262 16.7949 1.99197 17.6619C2.71741 18.4847 3.74745 18.9625 4.8335 18.9625H5.79807C6.09178 20.7114 7.60348 22.0562 9.43767 22.0562C11.2718 22.0562 12.7835 20.7114 13.0773 18.9625H14.1252C15.2113 18.9625 16.2414 18.4846 16.9668 17.6617L16.9671 17.6614C17.6979 16.8277 18.0467 15.73 17.9398 14.6291ZM15.2526 16.0479H15.2448L15.2 16.0989C14.9246 16.4123 14.5482 16.5895 14.146 16.5895H4.84391C4.44146 16.5895 4.07566 16.4225 3.79022 16.0992C3.48606 15.7472 3.34213 15.2598 3.40913 14.7812L3.40919 14.7808L4.00294 10.4474L4.003 10.447C4.38968 7.56723 6.75858 5.39999 9.50016 5.39999C12.2413 5.39999 14.6004 7.56688 14.9974 10.4475L15.5911 14.7808L15.5912 14.7812C15.655 15.2369 15.5275 15.7007 15.2526 16.0479ZM9.4585 19.6833C8.94727 19.6833 8.51219 19.3943 8.28994 18.9729H10.6271C10.4048 19.3943 9.96974 19.6833 9.4585 19.6833Z" fill="#8000FF" stroke="#8000FF" stroke-width="0.3"/>
</svg>
