<svg width="23" height="23" viewBox="0 0 23 23" fill="none" xmlns="http://www.w3.org/2000/svg">
<path d="M22.1322 10.1909L22.1323 10.1917C22.1498 10.3914 21.9887 10.5574 21.7925 10.5576L22.1322 10.1909ZM22.1322 10.1909L22.0702 9.5261L22.0702 9.52608C21.8642 7.31921 20.8732 5.23767 19.2794 3.66652C17.6845 2.09256 15.5842 1.11871 13.3412 0.912643L13.341 0.912629L12.6662 0.851328L12.6652 0.851244C12.4696 0.83478 12.2952 0.984481 12.2952 1.18697V10.2426C12.2952 10.4308 12.4498 10.5812 12.636 10.5812L12.6363 10.5812L21.7921 10.5576L22.1322 10.1909ZM11.4984 11.3657H19.8846C20.0707 11.3657 20.2253 11.5161 20.2253 11.7043V12.317V12.3173H20.0753L11.4984 11.3657ZM11.4984 11.3657V3.07542C11.4984 2.88725 11.3438 2.73681 11.1576 2.73681L10.5379 2.73681C10.5379 2.73681 10.5379 2.73681 10.5378 2.73681H10.5377V2.88681C9.28514 2.88479 8.04456 3.12766 6.88731 3.60146C5.73006 4.07526 4.67898 4.77064 3.79455 5.64759M11.4984 11.3657L1.61322 8.58505M3.79455 5.64759L3.68925 5.54076C3.68919 5.54081 3.68914 5.54087 3.68909 5.54092C3.68904 5.54097 3.68898 5.54102 3.68893 5.54107L3.79455 5.64759ZM3.79455 5.64759C2.92354 6.50614 2.22953 7.52385 1.7511 8.64413M1.7511 8.64413L1.61322 8.58505M1.7511 8.64413L1.61315 8.58521C1.61318 8.58516 1.6132 8.5851 1.61322 8.58505M1.7511 8.64413L1.61322 8.58505M1.61322 8.58505C1.10739 9.76561 0.847779 11.0351 0.85001 12.3173M1.61322 8.58505L14.2449 21.172C13.0696 21.6532 11.8097 21.8998 10.5377 21.8978M0.85001 12.3173C0.850011 12.3172 0.850011 12.3171 0.850011 12.3171L1.00001 12.3173L0.850011 12.3176C0.850011 12.3175 0.850011 12.3174 0.85001 12.3173ZM0.85001 12.3173C0.847961 13.5757 1.09756 14.822 1.58442 15.9846C2.07131 17.1472 2.78585 18.2031 3.68685 19.0915C4.57552 19.9701 5.61216 20.6622 6.76496 21.1436C7.95843 21.6435 9.24163 21.9 10.5377 21.8978M10.5377 21.8978C10.5376 21.8978 10.5375 21.8978 10.5374 21.8978L10.5377 21.7478L10.5379 21.8978C10.5378 21.8978 10.5378 21.8978 10.5377 21.8978ZM16.0051 17.7694L16.005 17.7695C15.2807 18.48 14.4217 19.0424 13.4771 19.4242C12.5325 19.8061 11.5209 19.9999 10.5003 19.9946H10.5002C8.43851 19.9854 6.50192 19.1873 5.04453 17.7463C3.57786 16.2961 2.77141 14.3682 2.77141 12.3173C2.77141 10.2664 3.57786 8.33846 5.04453 6.88827C6.28235 5.66436 7.86457 4.90337 9.57697 4.69741V13.1189V13.2689H9.72697H18.2455C18.0345 14.9693 17.2583 16.5414 16.0051 17.7694ZM19.9884 8.66674L14.2118 8.68233V2.96952C15.6155 3.29462 16.9013 3.99964 17.9242 5.007C18.9484 6.01753 19.6631 7.29116 19.9884 8.66674Z" fill="black" stroke="black" stroke-width="0.3"/>
</svg>
