<svg width="41" height="40" viewBox="0 0 41 40" fill="none" xmlns="http://www.w3.org/2000/svg">
<path d="M16.6481 0.625549C14.8046 0.625549 13.2962 2.13388 13.2962 3.9774V6.49128H6.59254C3.32449 6.49128 0.726807 9.08897 0.726807 12.357V38.3338C0.726807 38.8366 1.06199 39.1718 1.56477 39.1718H40.111C40.6138 39.1718 40.949 38.8366 40.949 38.3338V12.357C40.949 9.08897 38.3513 6.49128 35.0832 6.49128H28.3796V3.9774C28.3796 2.13388 26.8712 0.625549 25.0277 0.625549H16.6481ZM16.6481 2.30147H25.0277C25.9495 2.30147 26.7036 3.05564 26.7036 3.9774V6.49128H14.9722V3.9774C14.9722 3.05564 15.7263 2.30147 16.6481 2.30147ZM21.7593 13.1115L22.1783 13.9495H22.5138C23.8546 13.9495 25.8657 15.2899 25.8657 17.8038C25.8657 18.3903 25.7819 19.061 25.4467 19.8152C25.6143 19.899 25.8657 20.2332 25.8657 20.9036C25.6981 21.9929 25.2791 22.3291 25.0277 22.3291C25.0277 23.6698 23.7704 25.094 23.4352 25.3454V27.0214C24.2732 29.4514 29.301 28.2783 29.301 32.4681H12.4583C12.4583 28.2783 17.486 29.4514 18.324 27.0214V25.3454C17.9888 25.1778 16.7316 23.6698 16.7316 22.3291C16.4802 22.3291 15.9774 21.9929 15.8936 20.9036C15.8098 20.317 16.145 19.9828 16.3126 19.8152C16.0612 19.1448 15.8936 18.4741 15.8936 17.8038C15.8936 14.7871 17.9885 13.1115 21.7593 13.1115Z" fill="white"/>
</svg>
