<svg width="160" height="127" viewBox="0 0 160 127" fill="none" xmlns="http://www.w3.org/2000/svg">
<path d="M126.5 98.6395C126.5 126.751 98.0373 126.751 63.2499 126.751C28.4624 126.751 0 126.751 0 98.6395C0 70.5285 28.4624 35.3896 63.2499 35.3896C98.0373 35.3896 126.5 70.5285 126.5 98.6395Z" fill="#8000FF"/>
<path d="M84.3351 5.87221C77.6588 13.2514 80.8213 -9.58887 66.7657 5.87221C60.0894 13.2514 63.2519 -9.58887 49.1963 5.87221C43.2227 12.5486 44.9797 -5.02082 35.4922 2.00694L45.6824 38.9027H80.8213L91.3629 0.25C89.606 0.952776 87.4976 2.35833 84.3351 5.87221Z" fill="#8000FF"/>
<path d="M28.1109 116.209C26.3539 116.209 24.9484 115.155 24.597 113.398C22.8401 105.316 22.8401 96.8826 23.8942 88.4493C26.0026 71.5827 31.6248 55.4188 40.0581 43.1202C40.4095 42.7688 40.4095 42.4175 40.7609 42.0661C41.815 40.3091 42.8692 38.5522 44.6261 37.498C46.7345 36.0925 48.4914 36.4439 49.897 36.7952H50.5997C53.4108 37.498 55.8705 37.8494 58.3303 38.2008C66.0608 39.255 73.7913 38.2008 80.1163 35.7411C81.8733 35.0383 83.9816 35.7411 84.6844 37.8494C85.3871 39.6064 84.6844 41.7147 82.576 42.4175C74.8455 45.5799 66.4122 46.2827 57.2761 45.2286C54.8164 44.8772 52.0053 44.5258 48.8428 43.4716H48.4914C48.14 44.1744 47.4372 44.8772 47.0858 45.5799C46.7345 46.2827 46.3831 46.6341 46.0317 46.9855C38.3011 58.2299 33.0303 73.3396 30.922 89.1521C29.8678 96.8826 30.2192 104.262 31.6248 111.641C31.9762 113.398 30.922 115.506 28.8137 115.858C28.4623 116.209 28.4623 116.209 28.1109 116.209Z" fill="#E9FA1E"/>
<path d="M17.5715 81.0693C15.4632 81.0693 14.0576 79.6638 14.0576 77.5554C14.0576 65.6082 28.4645 38.9027 44.9798 35.3889C46.7367 35.0375 48.845 36.0916 49.1964 38.2C49.5478 39.9569 48.4937 42.0652 46.3853 42.4166C33.7354 44.8763 21.0854 68.068 21.0854 77.5554C21.0854 79.6638 19.6798 81.0693 17.5715 81.0693Z" fill="#E9FA1E"/>
<path d="M148.678 101.978L115.403 89.1662L148.678 76.3544C151.348 75.2868 152.771 72.2618 151.703 69.4147C150.636 66.7456 147.611 65.3221 144.764 66.3897L98.499 84.1839C96.5417 84.8956 95.1182 87.0309 95.1182 89.1662C95.1182 91.3015 96.5417 93.4368 98.499 94.1486L144.764 111.943C145.476 112.121 146.009 112.299 146.721 112.299C148.856 112.299 150.814 111.053 151.703 108.918C152.771 106.071 151.348 103.046 148.678 101.978Z" fill="#F45531"/>
<path d="M100.456 76.7111C98.8202 76.7111 97.2004 77.0333 95.6892 77.6593C94.178 78.2852 92.8049 79.2027 91.6482 80.3594C90.4916 81.516 89.5741 82.8891 88.9481 84.4003C88.3222 85.9115 88 87.5313 88 89.167C88 90.8027 88.3222 92.4224 88.9481 93.9337C89.5741 95.4449 90.4916 96.818 91.6482 97.9746C92.8049 99.1313 94.178 100.049 95.6892 100.675C97.2004 101.301 98.8202 101.623 100.456 101.623C102.092 101.623 103.711 101.301 105.223 100.675C106.734 100.049 108.107 99.1313 109.264 97.9746C110.42 96.818 111.338 95.4449 111.964 93.9337C112.59 92.4224 112.912 90.8027 112.912 89.167C112.912 87.5313 112.59 85.9115 111.964 84.4003C111.338 82.8891 110.42 81.516 109.264 80.3594C108.107 79.2027 106.734 78.2852 105.223 77.6593C103.711 77.0333 102.092 76.7111 100.456 76.7111ZM146.721 58.917C143.417 58.917 140.249 60.2293 137.913 62.5652C135.577 64.9012 134.265 68.0694 134.265 71.3729C134.265 74.6764 135.577 77.8446 137.913 80.1805C140.249 82.5164 143.417 83.8288 146.721 83.8288C150.024 83.8288 153.192 82.5164 155.528 80.1805C157.864 77.8446 159.176 74.6764 159.176 71.3729C159.176 68.0694 157.864 64.9012 155.528 62.5652C153.192 60.2293 150.024 58.917 146.721 58.917ZM146.721 94.5052C143.417 94.5052 140.249 95.8175 137.913 98.1535C135.577 100.489 134.265 103.658 134.265 106.961C134.265 110.265 135.577 113.433 137.913 115.769C140.249 118.105 143.417 119.417 146.721 119.417C150.024 119.417 153.192 118.105 155.528 115.769C157.864 113.433 159.176 110.265 159.176 106.961C159.176 103.658 157.864 100.489 155.528 98.1535C153.192 95.8175 150.024 94.5052 146.721 94.5052Z" fill="#00FFA0"/>
<path d="M50.8728 76.4926H53.83V63.918H61.832L65.9075 76.4926H70.4304V63.918H76.0716V76.4926H78.9791V80.245H76.0716V83.923H78.9791V87.6755H76.0716V100.25H68.0447L63.9692 87.6755H59.496V100.25H53.83V87.6755H50.8728V83.923H53.83V80.245H50.8728V76.4926ZM59.496 83.923H62.7515L61.5835 80.245H59.496V83.923ZM68.3429 83.923H70.4304V80.245H67.1252L68.3429 83.923ZM59.0239 72.2679L59.3221 76.4926H60.341L59.0239 72.2679ZM70.8777 91.7013C70.828 91.2706 70.7286 89.9286 70.5795 87.6755H69.5606L70.8777 91.7013Z" fill="#E9FA1E"/>
</svg>
