<svg width="23" height="21" viewBox="0 0 23 21" fill="none" xmlns="http://www.w3.org/2000/svg">
<path d="M5.75262 13.9054L5.75289 13.9057C5.89683 14.0468 6.12558 14.0445 6.26997 13.9073L6.26998 13.9073L6.27141 13.906L9.94475 10.3221L13.3263 13.6589L13.3267 13.6592C13.4697 13.7994 13.7024 13.7995 13.8454 13.6592C13.8454 13.6592 13.8454 13.6592 13.8454 13.6592L21.37 6.28335L21.37 6.28333C21.5147 6.14147 21.5147 5.90825 21.37 5.76638L20.288 4.70541L20.2875 4.7049C20.2181 4.63754 20.1251 4.60025 20.0287 4.60025C19.9323 4.60025 19.8392 4.63754 19.7698 4.7049L19.7693 4.70539L13.5905 10.7616L10.2146 7.4305L10.2138 7.42966C10.1444 7.3623 10.0513 7.32501 9.9549 7.32501C9.85849 7.32501 9.76542 7.3623 9.69604 7.42966L9.69583 7.42986L4.67398 12.3248L4.67313 12.3256C4.60433 12.3938 4.56518 12.4864 4.56518 12.5836C4.56518 12.6807 4.60432 12.7734 4.67313 12.8415L4.67339 12.8418L5.75262 13.9054ZM21.765 17.7826H3.11721V1.21434C3.11721 1.01085 2.94891 0.85 2.74863 0.85H1.21858C1.0183 0.85 0.85 1.01085 0.85 1.21434V19.6473C0.85 19.8508 1.0183 20.0116 1.21858 20.0116H21.765C21.9653 20.0116 22.1336 19.8508 22.1336 19.6473V18.1469C22.1336 17.9435 21.9653 17.7826 21.765 17.7826Z" fill="black" stroke="black" stroke-width="0.3"/>
</svg>
