<svg width="17" height="22" viewBox="0 0 17 22" fill="none" xmlns="http://www.w3.org/2000/svg">
<path d="M0.287642 8.25071H1.99911V0.973366H6.63015L8.98881 8.25071H11.6064V0.973366H14.8711V8.25071H16.5538V10.4224H14.8711V12.551H16.5538V14.7227H14.8711V22H10.2257L7.86701 14.7227H5.27823V22H1.99911V14.7227H0.287642V12.551H1.99911V10.4224H0.287642V8.25071ZM5.27823 12.551H7.16229L6.48633 10.4224H5.27823V12.551ZM10.3983 12.551H11.6064V10.4224H9.69354L10.3983 12.551ZM5.00497 5.80575L5.17756 8.25071H5.76722L5.00497 5.80575ZM11.8652 17.0526C11.8365 16.8033 11.7789 16.0266 11.6926 14.7227H11.103L11.8652 17.0526Z" fill="#8000FF"/>
</svg>
